<?xml version="1.0" encoding="UTF-8" standalone="no"?>
<svg
   xmlns:dc="http://purl.org/dc/elements/1.1/"
   xmlns:cc="http://creativecommons.org/ns#"
   xmlns:rdf="http://www.w3.org/1999/02/22-rdf-syntax-ns#"
   xmlns:svg="http://www.w3.org/2000/svg"
   xmlns="http://www.w3.org/2000/svg"
   xmlns:sodipodi="http://sodipodi.sourceforge.net/DTD/sodipodi-0.dtd"
   xmlns:inkscape="http://www.inkscape.org/namespaces/inkscape"
   sodipodi:docname="bakery1.svg"
   viewBox="0 0 3000.6929 661.41733"
   height="661.4173"
   width="3000.6929"
   inkscape:version="1.1-dev (ddb55ca, 2020-02-02)"
   version="1.1"
   id="svg4233">
  <metadata
     id="metadata4239">
    <rdf:RDF>
      <cc:Work
         rdf:about="">
        <dc:format>image/svg+xml</dc:format>
        <dc:type
           rdf:resource="http://purl.org/dc/dcmitype/StillImage" />
        <dc:title></dc:title>
      </cc:Work>
    </rdf:RDF>
  </metadata>
  <defs
     id="defs4237" />
  <sodipodi:namedview
     width="650mm"
     units="px"
     fit-margin-bottom="0"
     fit-margin-right="0"
     fit-margin-left="0"
     fit-margin-top="0"
     borderlayer="false"
     inkscape:guide-bbox="true"
     showguides="true"
     inkscape:current-layer="svg4233"
     inkscape:window-maximized="0"
     inkscape:window-y="26"
     inkscape:window-x="1080"
     inkscape:cy="1035.8068"
     inkscape:cx="2225.844"
     inkscape:zoom="0.37941439"
     showgrid="false"
     id="namedview4235"
     inkscape:window-height="1414"
     inkscape:window-width="2560"
     inkscape:pageshadow="2"
     inkscape:pageopacity="0"
     guidetolerance="10"
     gridtolerance="10"
     objecttolerance="10"
     borderopacity="1"
     bordercolor="#666666"
     pagecolor="#ffffff">
    <sodipodi:guide
       inkscape:locked="false"
       id="guide5572"
       orientation="1,0"
       position="-483.24117,-361.41737" />
  </sodipodi:namedview>
  <ellipse
     transform="scale(-1,1)"
     cx="-1835.8232"
     cy="489.28802"
     rx="26.061733"
     ry="4.7081099"
     id="path5972"
     style="fill:none;fill-opacity:1;stroke:none;stroke-width:0.222737;stroke-miterlimit:4;stroke-dasharray:none;stroke-opacity:1" />
  <g
     transform="matrix(0.24095733,0,0,0.24095733,-4.9686201,658.94282)"
     id="g4612" />
  <g
     transform="matrix(0.24095733,0,0,0.24095733,-4.9686201,658.94282)"
     id="g4614" />
  <g
     transform="matrix(0.24095733,0,0,0.24095733,-4.9686201,658.94282)"
     id="g4616" />
  <g
     transform="matrix(0.24095733,0,0,0.24095733,-4.9686201,658.94282)"
     id="g4618" />
  <g
     transform="matrix(0.24095733,0,0,0.24095733,-4.9686201,658.94282)"
     id="g4620" />
  <g
     transform="matrix(0.24095733,0,0,0.24095733,-4.9686201,658.94282)"
     id="g4622" />
  <g
     transform="matrix(0.24095733,0,0,0.24095733,-4.9686201,658.94282)"
     id="g4624" />
  <g
     transform="matrix(0.24095733,0,0,0.24095733,-4.9686201,658.94282)"
     id="g4626" />
  <g
     transform="matrix(0.24095733,0,0,0.24095733,-4.9686201,658.94282)"
     id="g4628" />
  <g
     transform="matrix(0.24095733,0,0,0.24095733,-4.9686201,658.94282)"
     id="g4630" />
  <g
     transform="matrix(0.24095733,0,0,0.24095733,-4.9686201,658.94282)"
     id="g4632" />
  <g
     transform="matrix(0.24095733,0,0,0.24095733,-4.9686201,658.94282)"
     id="g4634" />
  <g
     transform="matrix(0.24095733,0,0,0.24095733,-4.9686201,658.94282)"
     id="g4636" />
  <g
     transform="matrix(0.24095733,0,0,0.24095733,-4.9686201,658.94282)"
     id="g4638" />
  <g
     transform="matrix(0.24095733,0,0,0.24095733,-4.9686201,658.94282)"
     id="g4640" />
  <text
     id="text4702"
     y="387.97498"
     x="-442.4772"
     style="font-style:normal;font-weight:normal;line-height:0%;font-family:sans-serif;letter-spacing:0px;word-spacing:0px;fill:#000000;fill-opacity:1;stroke:none;stroke-width:1px;stroke-linecap:butt;stroke-linejoin:miter;stroke-opacity:1"
     xml:space="preserve"><tspan
       style="font-size:40px;line-height:1.25"
       y="387.97498"
       x="-442.4772"
       id="tspan4704"
       sodipodi:role="line"> </tspan></text>
  <g
     transform="matrix(0.22882631,0,0,0.22882631,-308.38806,166.14076)"
     id="g5309" />
  <g
     transform="matrix(0.22882631,0,0,0.22882631,-308.38806,166.14076)"
     id="g5311" />
  <g
     transform="matrix(0.22882631,0,0,0.22882631,-308.38806,166.14076)"
     id="g5313" />
  <g
     transform="matrix(0.22882631,0,0,0.22882631,-308.38806,166.14076)"
     id="g5315" />
  <g
     transform="matrix(0.22882631,0,0,0.22882631,-308.38806,166.14076)"
     id="g5317" />
  <g
     transform="matrix(0.22882631,0,0,0.22882631,-308.38806,166.14076)"
     id="g5319" />
  <g
     transform="matrix(0.22882631,0,0,0.22882631,-308.38806,166.14076)"
     id="g5321" />
  <g
     transform="matrix(0.22882631,0,0,0.22882631,-308.38806,166.14076)"
     id="g5323" />
  <g
     transform="matrix(0.22882631,0,0,0.22882631,-308.38806,166.14076)"
     id="g5325" />
  <g
     transform="matrix(0.22882631,0,0,0.22882631,-308.38806,166.14076)"
     id="g5327" />
  <g
     transform="matrix(0.22882631,0,0,0.22882631,-308.38806,166.14076)"
     id="g5329" />
  <g
     transform="matrix(0.22882631,0,0,0.22882631,-308.38806,166.14076)"
     id="g5331" />
  <g
     transform="matrix(0.22882631,0,0,0.22882631,-308.38806,166.14076)"
     id="g5333" />
  <g
     transform="matrix(0.22882631,0,0,0.22882631,-308.38806,166.14076)"
     id="g5335" />
  <g
     transform="matrix(0.22882631,0,0,0.22882631,-308.38806,166.14076)"
     id="g5337" />
  <g
     transform="matrix(2.5274411,0,0,2.0782523,925.68997,340.60043)"
     style="fill:#ea172f;fill-opacity:1;stroke:none"
     id="g7502">
    <path
       style="fill:#ea172f;fill-opacity:1;stroke:none;stroke-width:0.50834;stroke-miterlimit:4;stroke-dasharray:none;stroke-opacity:1"
       d="m 396.1024,127.6115 c -0.31975,-0.13781 -0.88251,-0.47016 -1.25059,-0.73858 -0.69198,-0.50461 -17.7837,-18.17223 -20.92894,-21.63412 -1.83627,-2.02113 -2.29775,-2.75595 -2.38042,-3.79022 l -0.045,-0.56358 0.67887,-0.72967 c 0.6061,-0.651453 0.71954,-0.72967 1.0581,-0.72967 0.4835,0 1.57326,0.408732 2.11441,0.79303 0.66877,0.47493 7.98483,7.94465 15.14934,15.46753 3.6362,3.81807 6.86318,7.23839 7.17108,7.6007 0.83306,0.98033 1.39295,2.38236 1.22636,3.07107 -0.0809,0.33447 -0.79064,1.15821 -1.17616,1.36507 -0.39752,0.2133 -0.95195,0.17506 -1.61702,-0.11156 z m -0.25889,-2.50103 c 0.77415,-0.40405 0.87932,-1.69314 0.19376,-2.37469 -0.23347,-0.23208 -0.4178,-0.30794 -0.83563,-0.3439 -0.9499,-0.0817 -1.56859,0.48236 -1.56859,1.43017 0,1.19207 1.13149,1.85156 2.21046,1.28842 z"
       id="path7458"
       inkscape:connector-curvature="0" />
    <path
       style="fill:#ea172f;fill-opacity:1;stroke:none;stroke-width:0.87948"
       inkscape:connector-curvature="0"
       d="m 345.41634,59.765767 c -2.68791,0.546622 -4.12863,1.126713 -5.91339,2.364983 -3.42978,2.37614 -5.67687,5.934771 -6.39723,10.151582 -0.2903,1.673337 -0.18278,4.183344 0.24728,5.823215 0.87088,3.313208 2.42987,5.845526 4.96726,8.020865 2.16108,1.862983 5.80588,4.239126 9.82699,6.425612 5.2898,2.866989 10.25706,4.908465 13.61156,5.611268 0.44082,0.08932 1.11818,0.234265 1.50523,0.323509 0.39782,0.07812 1.38697,0.14502 2.31159,0.14502 1.36547,0 1.70952,-0.03351 2.23635,-0.234264 0.3333,-0.122714 0.61285,-0.189643 0.61285,-0.145021 0,0.05581 0.52682,0.647019 1.17192,1.327506 l 1.18268,1.227118 -0.16127,0.45738 c -0.35481,1.04862 -0.0645,2.49885 0.78486,4.06063 0.45158,0.82552 1.33321,1.76259 10.88066,11.66874 11.14943,11.5795 10.82689,11.25598 12.61166,11.94764 0.75262,0.27889 1.01065,0.32351 1.645,0.29004 1.05366,-0.0669 1.58048,-0.35699 2.54813,-1.40561 1.01066,-1.09324 1.21494,-1.63986 1.12893,-2.92276 -0.043,-0.70279 -0.13978,-1.04862 -0.49458,-1.85182 -0.24729,-0.53548 -0.63435,-1.23828 -0.86013,-1.53947 -0.53758,-0.74743 -20.36359,-21.30718 -20.92267,-21.708776 -1.53749,-1.093242 -3.07497,-1.572933 -4.25765,-1.327515 -0.32255,0.06701 -0.63434,0.122713 -0.69885,0.133876 -0.0753,0.0112 -0.68811,-0.546621 -1.36547,-1.23828 l -1.24718,-1.249423 0.15052,-0.368127 c 0.2688,-0.680493 0.39781,-2.398458 0.2688,-3.714812 -0.24729,-2.599247 -1.2902,-6.325218 -2.77393,-9.861538 -0.88163,-2.108404 -1.07516,-2.543473 -1.90304,-4.239123 -2.84918,-5.890147 -6.41872,-11.534873 -8.84859,-14.011413 -0.55908,-0.568934 -2.19333,-1.941071 -2.3116,-1.941071 -0.0323,0 -0.36556,-0.189645 -0.73112,-0.423913 -0.96764,-0.602402 -2.67715,-1.305203 -3.75231,-1.517159 -0.50532,-0.111556 -1.11817,-0.245423 -1.36546,-0.301201 -0.55908,-0.122712 -3.03196,-0.111556 -3.6878,0.02231 z m 3.9781,1.595247 c 2.87068,0.490846 5.52633,2.063784 7.64441,4.540324 1.84928,2.141872 4.37592,6.068637 6.34345,9.839225 0.72037,1.383292 2.31161,4.674191 2.62341,5.43277 0.13977,0.334667 0.43006,1.037469 0.64509,1.561781 1.03216,2.47654 2.2471,6.33637 2.36537,7.496554 0.0323,0.41275 0.0215,0.513151 -0.043,0.31235 -0.12902,-0.379281 -0.78487,-2.030311 -1.13968,-2.84467 -1.41921,-3.324362 -4.73071,-9.348378 -7.11757,-12.962788 -0.49458,-0.75858 -1.05366,-1.606404 -1.23644,-1.896449 -0.44082,-0.68049 -2.09656,-2.967385 -2.93519,-4.049477 -2.77392,-3.603253 -6.83805,-6.314061 -10.91291,-7.273441 l -0.59134,-0.133868 0.48382,-0.07809 c 0.90314,-0.122711 2.9567,-0.100399 3.87059,0.05579 z m -3.85984,1.740272 c 2.58039,0.535468 5.2253,2.008005 7.67666,4.272589 2.31161,2.130717 5.52634,6.715662 9.35392,13.297456 0.75262,1.305204 2.77392,5.165036 3.37601,6.470239 0.94615,2.030314 2.23635,5.477395 2.10733,5.611255 -0.0645,0.06696 -0.0215,0.133871 -0.53759,-0.758572 -0.92463,-1.617565 -3.24698,-5.153884 -5.33281,-8.14358 -4.33291,-6.191349 -9.20339,-12.3827 -11.34296,-14.390703 -1.61276,-1.51716 -3.83834,-3.067787 -6.11768,-4.261434 -0.90314,-0.47969 -3.07497,-1.338671 -3.73082,-1.483693 -0.60209,-0.122712 -0.26879,-0.323512 1.15043,-0.658179 0.92463,-0.223112 2.20408,-0.211957 3.39751,0.04462 z m -5.15003,2.052627 c 0.81713,0.167333 3.01046,1.03747 4.08562,1.61756 2.59114,1.394449 4.88124,3.179342 6.71977,5.231969 1.58048,1.762583 4.39742,5.310058 6.16068,7.719664 0.15053,0.200801 0.5591,0.75858 0.9139,1.238271 1.23643,1.662181 3.376,4.729967 4.9565,7.07264 0.47306,0.702802 2.59114,4.016006 3.15022,4.953079 0.12902,0.2008 0.21504,0.390441 0.19353,0.412762 -0.0323,0.03348 -26.29849,-27.175008 -27.37366,-28.3575 -0.0861,-0.08924 0.40858,-0.04462 1.19344,0.111555 z m 25.0943,29.450737 c 0.32255,0.345832 -3.34374,-2.130716 -5.49408,-3.703651 -0.59134,-0.43506 -1.44072,-1.059772 -1.88153,-1.383294 -0.44081,-0.323511 -1.32246,-0.992843 -1.9568,-1.483688 -0.6451,-0.490846 -1.36546,-1.048626 -1.602,-1.227115 -0.24728,-0.189645 -0.73111,-0.557779 -1.06441,-0.836669 -0.34405,-0.278889 -1.3332,-1.082091 -2.20408,-1.784893 -5.61234,-4.551478 -8.82708,-7.775442 -10.31081,-10.374693 -0.23653,-0.401601 -0.48382,-0.803203 -0.55909,-0.892447 -0.16127,-0.2008 -1.24718,-2.387295 -1.40846,-2.844674 -0.0645,-0.189645 -0.24728,-0.669335 -0.39781,-1.070936 -0.29029,-0.769736 -0.6451,-2.621561 -0.53758,-2.788896 0.043,-0.06693 24.59973,25.356648 27.41665,28.390956 z M 337.37412,69.961971 c 0.99989,2.643873 2.87068,5.845525 4.46192,7.630418 0.3118,0.345823 0.56984,0.658181 0.56984,0.691648 0,0.200799 5.32206,4.97539 7.24659,6.514859 0.22579,0.189646 0.82788,0.669336 1.34397,1.093248 3.91358,3.1905 10.14953,7.831225 12.77292,9.515709 0.65586,0.423919 1.18268,0.79205 1.16119,0.814366 -0.0215,0.02231 -0.49457,-0.122714 -1.04292,-0.312365 -2.32235,-0.825512 -6.01015,-2.655028 -9.11737,-4.529163 -0.38706,-0.223111 -0.83864,-0.502002 -1.02141,-0.613551 -1.61275,-0.959384 -3.52654,-2.197656 -6.02091,-3.893304 -0.94615,-0.647023 -4.5587,-3.346675 -4.78449,-3.580943 -0.0323,-0.03347 -0.29028,-0.256578 -0.59133,-0.502001 -2.9782,-2.465384 -5.13928,-5.756281 -6.05317,-9.1922 -0.23654,-0.903604 -0.27954,-1.31636 -0.27954,-2.576941 -0.0108,-1.483693 0.0861,-2.052628 0.49457,-3.101252 0.11826,-0.290046 0.12902,-0.27889 0.32256,0.423911 0.10751,0.401601 0.3548,1.126715 0.53758,1.617561 z m -2.12882,5.287746 c 1.11816,3.235119 3.22548,6.19135 6.16068,8.679045 1.78477,1.506004 7.27886,5.510864 8.80558,6.403306 0.17203,0.100443 0.72036,0.446221 1.22569,0.769732 0.90314,0.580092 3.45128,2.119567 3.50503,2.119567 0.0215,0 0.2903,0.15617 0.60209,0.35697 0.48383,0.290052 1.74177,0.948234 4.70922,2.465393 0.3978,0.200795 0.48382,0.267724 0.26879,0.223102 -0.43007,-0.08932 -2.12882,-0.658178 -2.79543,-0.925909 -0.29029,-0.12271 -1.09666,-0.446221 -1.77401,-0.713952 -1.26871,-0.502002 -4.59095,-2.052637 -5.5371,-2.576948 -0.29029,-0.16733 -1.13967,-0.624713 -1.88153,-1.026313 -0.74187,-0.401601 -1.77402,-0.992843 -2.29009,-1.305204 -0.51609,-0.312351 -1.03217,-0.624712 -1.12894,-0.680482 -1.54823,-0.925918 -4.39741,-2.86699 -5.13927,-3.502858 -0.19353,-0.156178 -0.50533,-0.412758 -0.69885,-0.568935 -0.74186,-0.568934 -2.10733,-2.108405 -2.68791,-3.023163 -1.08592,-1.684493 -1.63425,-3.067785 -2.02131,-4.997702 -0.24729,-1.294047 -0.30105,-3.23512 -0.10752,-3.971388 l 0.12902,-0.446223 0.18278,0.948225 c 0.10752,0.524311 0.31179,1.316358 0.47308,1.773737 z m 40.57665,25.836333 c 0.80637,0.41275 1.07516,0.66933 11.05267,11.03288 8.82709,9.15872 10.28931,10.70936 10.62262,11.34522 0.46232,0.8813 0.67734,1.86299 0.48382,2.24228 -0.15053,0.30119 -0.68811,0.87013 -1.07517,1.13786 -0.56984,0.37929 -1.86002,-0.0781 -3.03196,-1.08208 -1.24718,-1.04863 -19.90126,-20.51513 -20.35282,-21.21792 -0.53759,-0.83668 -0.77413,-1.3833 -0.86014,-1.95223 -0.0861,-0.52432 0.0215,-0.71397 0.77411,-1.4837 0.50533,-0.51315 0.54833,-0.53547 1.04292,-0.49084 0.29028,0.0223 0.86012,0.22311 1.34395,0.46853 z"
       id="path7500" />
  </g>
  <g
     transform="matrix(0,1.8618014,-2.1822182,0,2128.2905,-155.53543)"
     id="g7506"
     style="fill:#ea172f;fill-opacity:1;stroke:none">
    <path
       inkscape:connector-curvature="0"
       id="path7508"
       d="m 406.09411,135.52548 c -0.37034,-0.15383 -1.02213,-0.52482 -1.44844,-0.82445 -0.80145,-0.56327 -20.59705,-20.28491 -24.23986,-24.14927 -2.12676,-2.25611 -2.66125,-3.07635 -2.75699,-4.23087 l -0.0521,-0.6291 0.78627,-0.8145 c 0.70198,-0.72719 0.83336,-0.8145 1.22549,-0.8145 0.55998,0 1.82214,0.45625 2.4489,0.88523 0.77457,0.53014 9.24802,8.86828 17.54594,17.26576 4.21144,4.26196 7.94892,8.07992 8.30553,8.48435 0.96485,1.0943 1.61331,2.65933 1.42037,3.42811 -0.0937,0.37335 -0.91572,1.29286 -1.36223,1.52377 -0.46041,0.2381 -1.10254,0.19541 -1.87283,-0.12453 z m -0.29985,-2.79179 c 0.89662,-0.45103 1.01843,-1.88999 0.22441,-2.65077 -0.2704,-0.25906 -0.48389,-0.34374 -0.96783,-0.38388 -1.10017,-0.0912 -1.81673,0.53843 -1.81673,1.59644 0,1.33065 1.31049,2.06682 2.56015,1.43821 z"
       style="fill:#ea172f;fill-opacity:1;stroke:none;stroke-width:0.578;stroke-miterlimit:4;stroke-dasharray:none;stroke-opacity:1" />
    <path
       id="path7510"
       d="m 347.3896,59.792085 c -3.11313,0.610172 -4.78177,1.257704 -6.84888,2.639933 -3.97236,2.652387 -6.57493,6.624741 -7.40926,11.331793 -0.33622,1.867877 -0.21169,4.669695 0.28641,6.500215 1.00865,3.698398 2.81427,6.52512 5.75307,8.953361 2.50295,2.079571 6.72435,4.731962 11.3816,7.172646 6.12664,3.200302 11.8797,5.479117 15.76488,6.263627 0.51056,0.0997 1.29507,0.2615 1.74336,0.36112 0.46075,0.0872 1.60638,0.16188 2.67728,0.16188 1.58148,0 1.97996,-0.0374 2.59013,-0.2615 0.38603,-0.13698 0.7098,-0.21169 0.7098,-0.16188 0,0.0623 0.61017,0.72224 1.35732,1.48184 l 1.36978,1.36978 -0.18679,0.51056 c -0.41094,1.17053 -0.0747,2.78936 0.90903,4.53271 0.52302,0.92149 1.54412,1.96751 12.60196,13.02533 12.91325,12.92572 12.53968,12.56459 14.6068,13.33666 0.87168,0.31131 1.17053,0.36112 1.90524,0.32376 1.22034,-0.0747 1.83051,-0.39849 2.95124,-1.56902 1.17054,-1.22034 1.40714,-1.83051 1.30752,-3.26256 -0.0498,-0.7845 -0.16189,-1.17053 -0.57282,-2.06711 -0.28641,-0.59773 -0.7347,-1.38224 -0.9962,-1.71845 -0.62263,-0.83432 -23.58507,-23.78432 -24.2326,-24.23261 -1.78072,-1.22034 -3.56142,-1.7558 -4.9312,-1.48185 -0.37358,0.0748 -0.7347,0.13698 -0.80941,0.14944 -0.0872,0.0125 -0.79697,-0.61017 -1.58148,-1.38224 l -1.44449,-1.39468 0.17434,-0.410925 c 0.31132,-0.759606 0.46074,-2.6773 0.31132,-4.146691 -0.28641,-2.901433 -1.49431,-7.060581 -3.21276,-11.008029 -1.0211,-2.353525 -1.24525,-2.839174 -2.2041,-4.731958 -3.29991,-6.574929 -7.43415,-12.875904 -10.24842,-15.640363 -0.64752,-0.635078 -2.54031,-2.166738 -2.67729,-2.166738 -0.0374,0 -0.42339,-0.211693 -0.84678,-0.473196 -1.12072,-0.672437 -3.10067,-1.456945 -4.34592,-1.693543 -0.58526,-0.124525 -1.29506,-0.273955 -1.58147,-0.336218 -0.64753,-0.136978 -3.51161,-0.124525 -4.27121,0.0249 z m 4.60743,1.780709 c 3.32482,0.547911 6.40059,2.303717 8.85374,5.068176 2.14183,2.390884 5.06818,6.77417 7.34698,10.983122 0.83432,1.544112 2.6773,5.217606 3.03842,6.064377 0.16188,0.373575 0.4981,1.158084 0.74715,1.743352 1.19544,2.764459 2.60258,7.073028 2.73956,8.368094 0.0374,0.460736 0.0249,0.572809 -0.0498,0.348664 -0.14943,-0.423376 -0.90904,-2.266353 -1.31997,-3.175388 -1.64373,-3.710849 -5.4791,-10.43521 -8.24356,-14.469826 -0.57282,-0.846772 -1.22035,-1.793163 -1.43204,-2.116928 -0.51056,-0.759603 -2.42824,-3.31237 -3.39954,-4.520265 -3.21275,-4.022163 -7.91981,-7.048126 -12.63931,-8.119042 l -0.68489,-0.149431 0.56036,-0.08717 c 1.04602,-0.136977 3.42445,-0.112072 4.48291,0.06227 z m -4.47046,1.942594 c 2.98861,0.59772 6.05193,2.241453 8.8911,4.769315 2.6773,2.378431 6.40059,7.496416 10.83369,14.843402 0.87168,1.456945 3.21275,5.765517 3.91009,7.222461 1.09582,2.266356 2.59013,6.11419 2.4407,6.263613 -0.0747,0.07475 -0.0249,0.149434 -0.62263,-0.846763 -1.07091,-1.805621 -3.76065,-5.753068 -6.17645,-9.090343 -5.01837,-6.911148 -10.65935,-13.822297 -13.1374,-16.063749 -1.86789,-1.693543 -4.44556,-3.424444 -7.08548,-4.756863 -1.04602,-0.535458 -3.56143,-1.494303 -4.32103,-1.656185 -0.69734,-0.136978 -0.31132,-0.361123 1.33242,-0.734698 1.07091,-0.249051 2.55276,-0.236599 3.93499,0.04981 z m -5.96475,2.291263 c 0.94639,0.186787 3.4867,1.158084 4.73195,1.805615 3.00106,1.556566 5.65345,3.548969 7.78283,5.840232 1.83051,1.967498 5.09308,5.927399 7.13529,8.617142 0.17434,0.224146 0.64754,0.846772 1.05847,1.382231 1.43204,1.855424 3.91008,5.279867 5.74061,7.894897 0.5479,0.784509 3.00106,4.482902 3.64858,5.528918 0.14943,0.224145 0.24906,0.435833 0.22415,0.460749 -0.0374,0.03737 -30.45886,-30.334342 -31.70412,-31.654309 -0.0997,-0.09962 0.47321,-0.04981 1.38224,0.124525 z m 29.06417,32.874644 c 0.37358,0.386038 -3.87272,-2.378431 -6.36323,-4.134233 -0.68489,-0.48564 -1.66864,-1.18298 -2.17919,-1.544114 -0.51055,-0.361122 -1.53167,-1.10827 -2.26636,-1.65618 -0.74716,-0.547911 -1.58147,-1.170538 -1.85543,-1.369778 -0.28641,-0.211693 -0.84677,-0.622626 -1.2328,-0.933939 -0.39848,-0.311313 -1.54411,-1.207894 -2.55276,-1.992403 -6.50021,-5.080627 -10.22351,-8.679405 -11.94197,-11.580842 -0.27395,-0.448291 -0.56036,-0.896582 -0.64753,-0.996202 -0.18678,-0.224145 -1.44449,-2.664839 -1.63128,-3.175392 -0.0747,-0.211693 -0.2864,-0.747151 -0.46074,-1.195442 -0.33622,-0.859224 -0.74715,-2.926341 -0.62263,-3.11313 0.0498,-0.07471 28.49137,28.304582 31.75392,31.691655 z M 338.07512,71.173687 c 1.15807,2.951247 3.32482,6.525119 5.16779,8.517522 0.36112,0.386028 0.65998,0.7347 0.65998,0.772058 0,0.224144 6.164,5.553823 8.39299,7.272269 0.26151,0.211694 0.95885,0.747152 1.55658,1.220347 4.53271,3.561424 11.75517,8.741674 14.79358,10.621994 0.75961,0.473203 1.36978,0.884133 1.34488,0.909043 -0.0249,0.0249 -0.57281,-0.13698 -1.2079,-0.34868 -2.68975,-0.921485 -6.96095,-2.963698 -10.55973,-5.055718 -0.44829,-0.249049 -0.9713,-0.560364 -1.18299,-0.684882 -1.86788,-1.07092 -4.08443,-2.453152 -6.97341,-4.345934 -1.09583,-0.722246 -5.27987,-3.735756 -5.54138,-3.997259 -0.0374,-0.03736 -0.33621,-0.286408 -0.68488,-0.560363 -3.44935,-2.752007 -5.95231,-6.4255 -7.01077,-10.260875 -0.27396,-1.008655 -0.32376,-1.469398 -0.32376,-2.876533 -0.0125,-1.656185 0.0997,-2.291264 0.57281,-3.4618 0.13697,-0.323766 0.14943,-0.311313 0.37358,0.473195 0.12452,0.448291 0.41093,1.257705 0.62263,1.805616 z m -2.4656,5.902494 c 1.29505,3.61123 3.73575,6.911148 7.13529,9.68806 2.06712,1.68109 8.43036,6.15155 10.19861,7.147746 0.19924,0.112121 0.83432,0.498099 1.41959,0.859221 1.04601,0.647532 3.99726,2.365985 4.05952,2.365985 0.0249,0 0.33622,0.174326 0.69734,0.398471 0.56037,0.323773 2.01731,1.058474 5.45421,2.752016 0.46073,0.22414 0.56036,0.29885 0.31131,0.24904 -0.49811,-0.0997 -2.4656,-0.734697 -3.23766,-1.033554 -0.33622,-0.136976 -1.27015,-0.498098 -2.05466,-0.796955 -1.46941,-0.560364 -5.31723,-2.291274 -6.41305,-2.876541 -0.33622,-0.186784 -1.31997,-0.697341 -2.17919,-1.145631 -0.85923,-0.448291 -2.05467,-1.10827 -2.65238,-1.456946 -0.59773,-0.348664 -1.19546,-0.69734 -1.30753,-0.759593 -1.79316,-1.033565 -5.09308,-3.200303 -5.9523,-3.910097 -0.22414,-0.174335 -0.58527,-0.460744 -0.80941,-0.635078 -0.85922,-0.635078 -2.4407,-2.353526 -3.11313,-3.374633 -1.25771,-1.88033 -1.89278,-3.424442 -2.34107,-5.578728 -0.28641,-1.444492 -0.34868,-3.611231 -0.12453,-4.433097 l 0.14943,-0.4981 0.21169,1.058464 c 0.12453,0.585267 0.36112,1.469396 0.54792,1.97995 z m 46.9958,28.840039 c 0.93394,0.46073 1.24525,0.74714 12.80119,12.31554 10.22352,10.22351 11.91706,11.95442 12.30309,12.6642 0.53546,0.98376 0.7845,2.07958 0.56036,2.50297 -0.17434,0.33621 -0.79696,0.97129 -1.24525,1.27015 -0.65999,0.42338 -2.15428,-0.0872 -3.51161,-1.20789 -1.44449,-1.17054 -23.04961,-22.90019 -23.57261,-23.68469 -0.62263,-0.93395 -0.89659,-1.54412 -0.99621,-2.17919 -0.0997,-0.58527 0.0249,-0.79697 0.89658,-1.65619 0.58527,-0.57281 0.63507,-0.59773 1.2079,-0.54791 0.33621,0.0249 0.99619,0.24905 1.55656,0.52301 z"
       inkscape:connector-curvature="0"
       style="fill:#ea172f;fill-opacity:1;stroke:none" />
  </g>
  <g
     style="fill:#ea172f;fill-opacity:1;stroke:none;stroke-width:38.5204;stroke-miterlimit:4;stroke-dasharray:none;stroke-opacity:1"
     transform="matrix(0.02362473,0,0,-0.02058506,1861.734,573.69851)"
     id="g7568">
    <path
       style="fill:#ea172f;fill-opacity:1;stroke:none;stroke-width:38.5204;stroke-miterlimit:4;stroke-dasharray:none;stroke-opacity:1"
       inkscape:connector-curvature="0"
       d="m 896,-128 q -26,0 -44,18 L 228,492 q -10,8 -27.5,26 Q 183,536 145,583.5 107,631 77,681 47,731 23.5,802 0,873 0,940 q 0,220 127,344 127,124 351,124 62,0 126.5,-21.5 64.5,-21.5 120,-58 55.5,-36.5 95.5,-68.5 40,-32 76,-68 36,36 76,68 40,32 95.5,68.5 55.5,36.5 120,58 64.5,21.5 126.5,21.5 224,0 351,-124 127,-124 127,-344 0,-221 -229,-450 L 940,-110 q -18,-18 -44,-18"
       id="path7570" />
  </g>
  <g
     transform="matrix(12.426336,0,0,5.7052222,-353.41875,-389.43635)"
     id="text1059"
     style="font-style:normal;font-variant:normal;font-weight:normal;font-stretch:normal;font-size:94.6762px;line-height:125%;font-family:'Fast Food Icons';-inkscape-font-specification:'Fast Food Icons';letter-spacing:0px;word-spacing:0px;fill:#1fc5b6;fill-opacity:1;stroke:none;stroke-width:2.3669px;stroke-linecap:butt;stroke-linejoin:miter;stroke-opacity:1"
     aria-label="bakery">
    <path
       sodipodi:nodetypes="cccsccsccscccccscccssccc"
       inkscape:connector-curvature="0"
       id="path1215"
       style="font-style:normal;font-variant:normal;font-weight:normal;font-stretch:normal;font-family:'Savoye LET';-inkscape-font-specification:'Savoye LET';fill:#1fc5b6;fill-opacity:1;stroke:none;stroke-width:2.3669px"
       d="m 112.13344,94.770086 4.90023,-2.357659 -9.31384,34.999863 c 5.54743,-12.38927 10.987,-18.5839 16.3187,-18.5839 1.07867,0 2.03406,0.29278 2.86617,0.87835 0.86293,0.55474 1.52554,1.38685 1.98783,2.49634 0.49311,1.10949 0.73966,2.28061 0.73966,3.51337 0,2.34225 -0.55474,4.94647 -1.66423,7.81264 -1.10949,2.83535 -2.51175,5.27006 -4.2068,7.30412 -3.02027,3.66747 -6.34873,5.5012 -9.98538,5.5012 -1.14031,0 -2.23438,-0.20032 -3.28223,-0.60097 -1.04785,-0.36983 -2.21897,-1.00163 -3.51337,-1.89538 l -3.23601,1.94161 z m -4.41361,36.063124 c 1.38686,2.89699 3.37469,4.34548 5.96349,4.34548 1.84915,0 3.55961,-0.80129 5.13138,-2.40388 1.60259,-1.60259 3.02027,-3.92943 4.25303,-6.98052 0.70884,-1.72587 1.2944,-3.59042 1.75669,-5.59366 0.46228,-2.03406 0.69342,-3.65206 0.69342,-4.854 0,-2.89699 -1.01703,-4.34549 -3.05108,-4.34549 -1.35604,0 -2.89699,0.83211 -4.62286,2.49634 -1.72587,1.66423 -3.46714,3.99107 -5.22383,6.98052 -1.72587,2.95863 -3.35929,6.41037 -4.90024,10.35521 z" />
    <path
       inkscape:connector-curvature="0"
       id="path1217"
       style="font-style:normal;font-variant:normal;font-weight:normal;font-stretch:normal;font-family:'Savoye LET';-inkscape-font-specification:'Savoye LET';fill:#1fc5b6;fill-opacity:1;stroke:none;stroke-width:2.3669px"
       d="m 159.58832,108.22742 -4.34549,16.91967 q -0.69342,2.77371 -0.69342,4.34549 0,1.38685 0.60097,2.40388 0.60097,1.01703 1.47931,1.01703 1.34063,0 4.43795,-3.28223 l 0.6472,0.6472 -0.50852,0.60097 q -2.45011,2.81995 -3.79074,3.97566 -1.2944,1.10949 -2.2652,1.10949 -1.47932,0 -2.5888,-1.52554 -1.06326,-1.57178 -1.06326,-3.60583 0,-1.47932 1.10948,-6.70315 l 0.36983,-1.75669 q -1.71046,3.97566 -4.57663,7.62772 -4.80777,6.10218 -9.19949,6.10218 -2.63503,0 -4.16057,-1.89538 -1.52555,-1.89537 -1.52555,-5.08514 0,-4.34549 2.45012,-9.10704 2.49634,-4.76154 6.1484,-7.81263 3.69829,-3.09732 7.16544,-3.09732 3.65205,0 5.45497,2.68126 l 0.50851,-1.75668 z m -5.31629,5.91726 q -0.55474,-1.75669 -1.89537,-2.72749 -1.2944,-1.01702 -3.00486,-1.01702 -2.03406,0 -4.29926,1.89537 -2.2652,1.84914 -4.16057,5.1776 -1.47932,2.63503 -2.49635,5.8248 -0.9708,3.18978 -0.9708,5.27006 0,2.35766 0.87835,3.69829 0.92457,1.34063 2.5888,1.34063 2.12651,0 4.43794,-1.98783 2.31143,-1.98783 4.57664,-5.68612 1.38685,-2.12651 2.17274,-4.25303 0.78589,-2.12651 1.75669,-5.91726 z" />
    <path
       sodipodi:nodetypes="ccccccccsccccscccsccccccc"
       inkscape:connector-curvature="0"
       id="path1219"
       style="font-style:normal;font-variant:normal;font-weight:normal;font-stretch:normal;font-family:'Savoye LET';-inkscape-font-specification:'Savoye LET';fill:#1fc5b6;fill-opacity:1;stroke:none;stroke-width:2.3669px"
       d="m 173.59314,94.412427 -4.57418,30.688433 c 0.70884,-1.66423 1.55636,-3.26682 2.54257,-4.80777 0.98621,-1.54095 2.11111,-3.03568 3.37469,-4.48418 1.26358,-1.47931 2.48093,-2.68126 3.65206,-3.60583 1.51013,-1.20194 3.02027,-2.09569 4.5304,-2.68126 1.54095,-0.58556 3.26682,-0.92457 5.17761,-1.01703 l -0.83212,3.69829 c -0.92457,-0.18491 -1.618,-0.27737 -2.08029,-0.27737 -3.63665,0 -7.02674,1.83373 -10.17029,5.5012 1.26358,3.3901 2.60421,6.44119 4.02189,9.15326 0.80129,1.57177 1.49472,2.83536 2.08029,3.79075 0.61638,0.92457 1.17112,1.60259 1.66423,2.03406 0.52392,0.43147 1.03243,0.6472 1.52554,0.6472 1.17113,0 2.65044,-0.93998 4.43795,-2.81995 l 0.36982,-0.41605 0.60098,0.69343 c -3.11273,3.75992 -5.37793,5.63988 -6.79561,5.63988 -0.95539,0 -1.84914,-0.41606 -2.68126,-1.24817 -0.83211,-0.83211 -1.80291,-2.2652 -2.9124,-4.29926 -1.9416,-3.54419 -3.52878,-6.90347 -4.76154,-10.07783 -2.89699,4.77695 -4.74614,9.60014 -5.54744,14.46955 l -3.00485,0.9708 4.38926,-39.194494 z" />
    <path
       inkscape:connector-curvature="0"
       id="path1221"
       style="font-style:normal;font-variant:normal;font-weight:normal;font-stretch:normal;font-family:'Savoye LET';-inkscape-font-specification:'Savoye LET';fill:#1fc5b6;fill-opacity:1;stroke:none;stroke-width:2.3669px"
       d="m 210.67092,128.38309 0.83212,0.69343 q -2.86618,3.79074 -5.59366,5.5012 -2.72749,1.66423 -5.87104,1.66423 -3.74451,0 -6.00971,-2.49634 -2.26521,-2.49635 -2.26521,-6.61069 0,-4.16058 2.17275,-8.41361 2.21897,-4.29926 5.5012,-7.07297 3.32846,-2.81995 6.56446,-2.81995 1.89538,0 3.09732,1.10949 1.24817,1.10949 1.24817,2.86617 0,3.5596 -3.8832,7.11921 -3.8832,3.5596 -10.58635,6.05594 -0.0462,0.36983 -0.0462,0.83212 0,3.18977 1.75669,5.22383 1.75668,1.98783 4.5304,1.98783 2.17274,0 4.2068,-1.34063 2.03406,-1.38686 4.34549,-4.29926 z m -14.79315,-3.51337 q 4.99269,-2.21898 7.67395,-4.94646 1.80291,-1.84915 2.9124,-3.97566 1.10949,-2.12652 1.10949,-3.83698 0,-2.17274 -1.98783,-2.17274 -3.00486,0 -6.10218,4.76154 -3.05109,4.71532 -3.60583,10.1703 z" />
    <path
       inkscape:connector-curvature="0"
       id="path1223"
       style="font-style:normal;font-variant:normal;font-weight:normal;font-stretch:normal;font-family:'Savoye LET';-inkscape-font-specification:'Savoye LET';fill:#1fc5b6;fill-opacity:1;stroke:none;stroke-width:2.3669px"
       d="m 214.69281,122.4196 q 3.97566,-4.80777 5.31629,-8.96835 -3.74451,-2.08028 -3.74451,-5.96349 0,-1.84914 0.87834,-3.00486 0.87834,-1.15571 2.21897,-1.15571 1.38686,0 2.2652,1.2944 0.87835,1.24817 0.87835,3.28223 0,1.43309 -0.50852,3.18977 1.24818,0.3236 2.2652,0.3236 2.86618,0 4.71532,-1.66423 h 2.21897 l -0.3236,0.64721 q -3.32846,6.10217 -5.5012,12.01943 -2.12651,5.87103 -2.12651,8.78343 0,1.06326 0.55474,1.80292 0.55474,0.69343 1.34063,0.69343 1.89537,0 6.10217,-4.02189 l 0.73966,0.83212 q -1.2944,1.43308 -4.02189,3.5596 -2.45011,1.9416 -4.57663,1.9416 -1.80291,0 -2.86617,-1.20194 -1.01703,-1.20195 -1.01703,-3.28224 0,-3.46714 2.68126,-8.78343 0.9708,-1.98783 2.49634,-4.5304 1.52555,-2.54257 3.83698,-6.05595 l 0.46228,-0.6472 q -1.52554,1.38686 -2.95863,1.98783 -1.38686,0.55474 -3.18977,0.55474 -0.83212,0 -1.75669,-0.23114 -1.47931,4.5304 -5.54743,9.33818 z m 6.33332,-11.74206 q 0.18492,-1.15572 0.18492,-1.9416 0,-1.61801 -0.55475,-2.54258 -0.50851,-0.92457 -1.34063,-0.92457 -0.46228,0 -0.83211,0.46229 -0.3236,0.41605 -0.3236,1.06325 0,2.17275 2.86617,3.88321 z" />
    <path
       inkscape:connector-curvature="0"
       id="path1225"
       style="font-style:normal;font-variant:normal;font-weight:normal;font-stretch:normal;font-family:'Savoye LET';-inkscape-font-specification:'Savoye LET';fill:#1fc5b6;fill-opacity:1;stroke:none;stroke-width:2.3669px"
       d="m 231.10396,151.95968 2.2652,-3.05109 q 2.68126,2.86617 6.05595,2.86617 3.5596,0 5.73234,-2.81994 2.17275,-2.81995 3.55961,-9.24572 l 2.12651,-9.56932 q -5.08515,5.96349 -9.19949,5.96349 -2.40389,0 -3.79075,-1.47932 -1.34062,-1.47931 -1.34062,-3.97566 0,-1.66423 0.41605,-3.65206 l 3.14355,-16.59606 4.48417,-1.89538 -4.48417,18.63013 q -0.55475,2.2652 -0.55475,3.37469 0,1.57177 0.92458,2.5888 0.9708,0.9708 2.54257,0.9708 1.71046,0 3.74452,-1.47932 2.08028,-1.52554 4.62286,-4.5304 l 3.97565,-17.65932 4.34549,-1.89538 -6.74937,27.18242 q -1.20195,4.90023 -2.31143,7.67395 -1.06326,2.77371 -2.49635,4.62286 -4.5304,5.8248 -11.04863,5.8248 -3.79075,0 -5.96349,-1.84914 z" />
  </g>
  <path
     style="fill:#ea172f;fill-opacity:1;stroke:none;stroke-width:8.93637"
     inkscape:connector-curvature="0"
     d="m 759.45472,566.15016 c -6.62336,1.9622 160.83921,3.92858 370.87008,3.92858 210.0314,0 380.3294,-0.98269 377.4867,-2.45519 -7.5668,-4.41959 -737.0033,-5.4016 -748.35678,-1.4724 z"
     id="path1231" />
  <path
     id="path1233"
     d="m 2238.128,566.15016 c -6.6241,1.9622 160.8374,3.92858 370.87,3.92858 210.0309,0 380.3296,-0.98269 377.4863,-2.45519 -7.5662,-4.41959 -737.0033,-5.4016 -748.3563,-1.4724 z"
     inkscape:connector-curvature="0"
     style="fill:#ea172f;fill-opacity:1;stroke:none;stroke-width:8.93637" />
  <path
     inkscape:connector-curvature="0"
     style="fill:#ea172f;fill-opacity:1;stroke-width:0.404641"
     d="m 332.13735,42.326975 c -33.15899,0.0012 -63.96751,3.262804 -85.27423,10.202534 C 55.627746,116.95983 -25.228672,294.5617 65.46593,450.68525 c 81.95752,143.467 262.27021,196.17979 420.70685,124.94338 76.5192,-34.14617 114.76102,-69.2875 152.99786,-144.4242 22.95235,-43.89661 26.18482,-62.45067 21.81594,-121.98646 C 652.25246,196.0351 595.44015,117.94589 483.97856,67.204905 449.13293,51.336389 387.40314,42.325719 332.13735,42.326975 Z M 256.71471,178.47118 c 25.13429,8.7945 275.36641,140.5239 275.36641,144.42421 0,4.85625 -268.82992,146.38343 -278.67951,146.38343 -3.29624,0 -5.50413,-66.39457 -5.50413,-147.38141 0,-80.98715 4.40645,-145.41434 8.81723,-143.42623 z"
     id="path1235" />
</svg>
