<?xml version="1.0" encoding="UTF-8" standalone="no"?>
<!-- Created with Inkscape (http://www.inkscape.org/) -->

<svg
   xmlns:dc="http://purl.org/dc/elements/1.1/"
   xmlns:cc="http://creativecommons.org/ns#"
   xmlns:rdf="http://www.w3.org/1999/02/22-rdf-syntax-ns#"
   xmlns:svg="http://www.w3.org/2000/svg"
   xmlns="http://www.w3.org/2000/svg"
   xmlns:sodipodi="http://sodipodi.sourceforge.net/DTD/sodipodi-0.dtd"
   xmlns:inkscape="http://www.inkscape.org/namespaces/inkscape"
   id="svg4233"
   version="1.1"
   inkscape:version="0.92.2 5c3e80d, 2017-08-06"
   width="212.94092"
   height="61.396393"
   viewBox="0 0 212.94092 61.396395"
   sodipodi:docname="bakery.svg">
  <metadata
     id="metadata4239">
    <rdf:RDF>
      <cc:Work
         rdf:about="">
        <dc:format>image/svg+xml</dc:format>
        <dc:type
           rdf:resource="http://purl.org/dc/dcmitype/StillImage" />
        <dc:title></dc:title>
      </cc:Work>
    </rdf:RDF>
  </metadata>
  <defs
     id="defs4237" />
  <sodipodi:namedview
     pagecolor="#ffffff"
     bordercolor="#666666"
     borderopacity="1"
     objecttolerance="10"
     gridtolerance="10"
     guidetolerance="10"
     inkscape:pageopacity="0"
     inkscape:pageshadow="2"
     inkscape:window-width="1680"
     inkscape:window-height="1006"
     id="namedview4235"
     showgrid="false"
     inkscape:zoom="1.8101934"
     inkscape:cx="-106.36099"
     inkscape:cy="-67.288611"
     inkscape:window-x="11"
     inkscape:window-y="134"
     inkscape:window-maximized="0"
     inkscape:current-layer="svg4233"
     showguides="true"
     inkscape:guide-bbox="true"
     borderlayer="false"
     fit-margin-top="0"
     fit-margin-left="0"
     fit-margin-right="0"
     fit-margin-bottom="0">
    <sodipodi:guide
       position="-438.22626,-388.29202"
       orientation="1,0"
       id="guide5572"
       inkscape:locked="false" />
  </sodipodi:namedview>
  <g
     id="g4612"
     transform="matrix(0.24095733,0,0,0.24095733,40.046295,630.27151)" />
  <g
     id="g4614"
     transform="matrix(0.24095733,0,0,0.24095733,40.046295,630.27151)" />
  <g
     id="g4616"
     transform="matrix(0.24095733,0,0,0.24095733,40.046295,630.27151)" />
  <g
     id="g4618"
     transform="matrix(0.24095733,0,0,0.24095733,40.046295,630.27151)" />
  <g
     id="g4620"
     transform="matrix(0.24095733,0,0,0.24095733,40.046295,630.27151)" />
  <g
     id="g4622"
     transform="matrix(0.24095733,0,0,0.24095733,40.046295,630.27151)" />
  <g
     id="g4624"
     transform="matrix(0.24095733,0,0,0.24095733,40.046295,630.27151)" />
  <g
     id="g4626"
     transform="matrix(0.24095733,0,0,0.24095733,40.046295,630.27151)" />
  <g
     id="g4628"
     transform="matrix(0.24095733,0,0,0.24095733,40.046295,630.27151)" />
  <g
     id="g4630"
     transform="matrix(0.24095733,0,0,0.24095733,40.046295,630.27151)" />
  <g
     id="g4632"
     transform="matrix(0.24095733,0,0,0.24095733,40.046295,630.27151)" />
  <g
     id="g4634"
     transform="matrix(0.24095733,0,0,0.24095733,40.046295,630.27151)" />
  <g
     id="g4636"
     transform="matrix(0.24095733,0,0,0.24095733,40.046295,630.27151)" />
  <g
     id="g4638"
     transform="matrix(0.24095733,0,0,0.24095733,40.046295,630.27151)" />
  <g
     id="g4640"
     transform="matrix(0.24095733,0,0,0.24095733,40.046295,630.27151)" />
  <g
     id="g5309"
     transform="matrix(0.22882631,0,0,0.22882631,-263.37315,137.46945)" />
  <g
     id="g5311"
     transform="matrix(0.22882631,0,0,0.22882631,-263.37315,137.46945)" />
  <g
     id="g5313"
     transform="matrix(0.22882631,0,0,0.22882631,-263.37315,137.46945)" />
  <g
     id="g5315"
     transform="matrix(0.22882631,0,0,0.22882631,-263.37315,137.46945)" />
  <g
     id="g5317"
     transform="matrix(0.22882631,0,0,0.22882631,-263.37315,137.46945)" />
  <g
     id="g5319"
     transform="matrix(0.22882631,0,0,0.22882631,-263.37315,137.46945)" />
  <g
     id="g5321"
     transform="matrix(0.22882631,0,0,0.22882631,-263.37315,137.46945)" />
  <g
     id="g5323"
     transform="matrix(0.22882631,0,0,0.22882631,-263.37315,137.46945)" />
  <g
     id="g5325"
     transform="matrix(0.22882631,0,0,0.22882631,-263.37315,137.46945)" />
  <g
     id="g5327"
     transform="matrix(0.22882631,0,0,0.22882631,-263.37315,137.46945)" />
  <g
     id="g5329"
     transform="matrix(0.22882631,0,0,0.22882631,-263.37315,137.46945)" />
  <g
     id="g5331"
     transform="matrix(0.22882631,0,0,0.22882631,-263.37315,137.46945)" />
  <g
     id="g5333"
     transform="matrix(0.22882631,0,0,0.22882631,-263.37315,137.46945)" />
  <g
     id="g5335"
     transform="matrix(0.22882631,0,0,0.22882631,-263.37315,137.46945)" />
  <g
     id="g5337"
     transform="matrix(0.22882631,0,0,0.22882631,-263.37315,137.46945)" />
  <g
     aria-label="bakery"
     style="font-style:normal;font-variant:normal;font-weight:normal;font-stretch:normal;font-size:94.67617035px;line-height:125%;font-family:'Fast Food Icons';-inkscape-font-specification:'Fast Food Icons';letter-spacing:0px;word-spacing:0px;fill:#ffffff;fill-opacity:1;stroke:none;stroke-width:2.36690402px;stroke-linecap:butt;stroke-linejoin:miter;stroke-opacity:1"
     id="text1059"
     transform="translate(-46.732315,-92.412427)">
    <path
       d="m 112.13344,94.770086 4.90023,-2.357659 -9.31384,34.999863 c 5.54743,-12.38927 10.987,-18.5839 16.3187,-18.5839 1.07867,0 2.03406,0.29278 2.86617,0.87835 0.86293,0.55474 1.52554,1.38685 1.98783,2.49634 0.49311,1.10949 0.73966,2.28061 0.73966,3.51337 0,2.34225 -0.55474,4.94647 -1.66423,7.81264 -1.10949,2.83535 -2.51175,5.27006 -4.2068,7.30412 -3.02027,3.66747 -6.34873,5.5012 -9.98538,5.5012 -1.14031,0 -2.23438,-0.20032 -3.28223,-0.60097 -1.04785,-0.36983 -2.21897,-1.00163 -3.51337,-1.89538 l -3.23601,1.94161 z m -4.41361,36.063124 c 1.38686,2.89699 3.37469,4.34548 5.96349,4.34548 1.84915,0 3.55961,-0.80129 5.13138,-2.40388 1.60259,-1.60259 3.02027,-3.92943 4.25303,-6.98052 0.70884,-1.72587 1.2944,-3.59042 1.75669,-5.59366 0.46228,-2.03406 0.69342,-3.65206 0.69342,-4.854 0,-2.89699 -1.01703,-4.34549 -3.05108,-4.34549 -1.35604,0 -2.89699,0.83211 -4.62286,2.49634 -1.72587,1.66423 -3.46714,3.99107 -5.22383,6.98052 -1.72587,2.95863 -3.35929,6.41037 -4.90024,10.35521 z"
       style="font-style:normal;font-variant:normal;font-weight:normal;font-stretch:normal;font-family:'Savoye LET';-inkscape-font-specification:'Savoye LET';fill:#ffffff;fill-opacity:1;stroke:none;stroke-width:2.36690402px"
       id="path1215"
       inkscape:connector-curvature="0"
       sodipodi:nodetypes="cccsccsccscccccscccssccc" />
    <path
       d="m 159.58832,108.22742 -4.34549,16.91967 q -0.69342,2.77371 -0.69342,4.34549 0,1.38685 0.60097,2.40388 0.60097,1.01703 1.47931,1.01703 1.34063,0 4.43795,-3.28223 l 0.6472,0.6472 -0.50852,0.60097 q -2.45011,2.81995 -3.79074,3.97566 -1.2944,1.10949 -2.2652,1.10949 -1.47932,0 -2.5888,-1.52554 -1.06326,-1.57178 -1.06326,-3.60583 0,-1.47932 1.10948,-6.70315 l 0.36983,-1.75669 q -1.71046,3.97566 -4.57663,7.62772 -4.80777,6.10218 -9.19949,6.10218 -2.63503,0 -4.16057,-1.89538 -1.52555,-1.89537 -1.52555,-5.08514 0,-4.34549 2.45012,-9.10704 2.49634,-4.76154 6.1484,-7.81263 3.69829,-3.09732 7.16544,-3.09732 3.65205,0 5.45497,2.68126 l 0.50851,-1.75668 z m -5.31629,5.91726 q -0.55474,-1.75669 -1.89537,-2.72749 -1.2944,-1.01702 -3.00486,-1.01702 -2.03406,0 -4.29926,1.89537 -2.2652,1.84914 -4.16057,5.1776 -1.47932,2.63503 -2.49635,5.8248 -0.9708,3.18978 -0.9708,5.27006 0,2.35766 0.87835,3.69829 0.92457,1.34063 2.5888,1.34063 2.12651,0 4.43794,-1.98783 2.31143,-1.98783 4.57664,-5.68612 1.38685,-2.12651 2.17274,-4.25303 0.78589,-2.12651 1.75669,-5.91726 z"
       style="font-style:normal;font-variant:normal;font-weight:normal;font-stretch:normal;font-family:'Savoye LET';-inkscape-font-specification:'Savoye LET';fill:#ffffff;fill-opacity:1;stroke:none;stroke-width:2.36690402px"
       id="path1217"
       inkscape:connector-curvature="0" />
    <path
       d="m 173.59314,94.412427 -4.57418,30.688433 c 0.70884,-1.66423 1.55636,-3.26682 2.54257,-4.80777 0.98621,-1.54095 2.11111,-3.03568 3.37469,-4.48418 1.26358,-1.47931 2.48093,-2.68126 3.65206,-3.60583 1.51013,-1.20194 3.02027,-2.09569 4.5304,-2.68126 1.54095,-0.58556 3.26682,-0.92457 5.17761,-1.01703 l -0.83212,3.69829 c -0.92457,-0.18491 -1.618,-0.27737 -2.08029,-0.27737 -3.63665,0 -7.02674,1.83373 -10.17029,5.5012 1.26358,3.3901 2.60421,6.44119 4.02189,9.15326 0.80129,1.57177 1.49472,2.83536 2.08029,3.79075 0.61638,0.92457 1.17112,1.60259 1.66423,2.03406 0.52392,0.43147 1.03243,0.6472 1.52554,0.6472 1.17113,0 2.65044,-0.93998 4.43795,-2.81995 l 0.36982,-0.41605 0.60098,0.69343 c -3.11273,3.75992 -5.37793,5.63988 -6.79561,5.63988 -0.95539,0 -1.84914,-0.41606 -2.68126,-1.24817 -0.83211,-0.83211 -1.80291,-2.2652 -2.9124,-4.29926 -1.9416,-3.54419 -3.52878,-6.90347 -4.76154,-10.07783 -2.89699,4.77695 -4.74614,9.60014 -5.54744,14.46955 l -3.00485,0.9708 4.38926,-39.194494 z"
       style="font-style:normal;font-variant:normal;font-weight:normal;font-stretch:normal;font-family:'Savoye LET';-inkscape-font-specification:'Savoye LET';fill:#ffffff;fill-opacity:1;stroke:none;stroke-width:2.36690402px"
       id="path1219"
       inkscape:connector-curvature="0"
       sodipodi:nodetypes="ccccccccsccccscccsccccccc" />
    <path
       d="m 210.67092,128.38309 0.83212,0.69343 q -2.86618,3.79074 -5.59366,5.5012 -2.72749,1.66423 -5.87104,1.66423 -3.74451,0 -6.00971,-2.49634 -2.26521,-2.49635 -2.26521,-6.61069 0,-4.16058 2.17275,-8.41361 2.21897,-4.29926 5.5012,-7.07297 3.32846,-2.81995 6.56446,-2.81995 1.89538,0 3.09732,1.10949 1.24817,1.10949 1.24817,2.86617 0,3.5596 -3.8832,7.11921 -3.8832,3.5596 -10.58635,6.05594 -0.0462,0.36983 -0.0462,0.83212 0,3.18977 1.75669,5.22383 1.75668,1.98783 4.5304,1.98783 2.17274,0 4.2068,-1.34063 2.03406,-1.38686 4.34549,-4.29926 z m -14.79315,-3.51337 q 4.99269,-2.21898 7.67395,-4.94646 1.80291,-1.84915 2.9124,-3.97566 1.10949,-2.12652 1.10949,-3.83698 0,-2.17274 -1.98783,-2.17274 -3.00486,0 -6.10218,4.76154 -3.05109,4.71532 -3.60583,10.1703 z"
       style="font-style:normal;font-variant:normal;font-weight:normal;font-stretch:normal;font-family:'Savoye LET';-inkscape-font-specification:'Savoye LET';fill:#ffffff;fill-opacity:1;stroke:none;stroke-width:2.36690402px"
       id="path1221"
       inkscape:connector-curvature="0" />
    <path
       d="m 214.69281,122.4196 q 3.97566,-4.80777 5.31629,-8.96835 -3.74451,-2.08028 -3.74451,-5.96349 0,-1.84914 0.87834,-3.00486 0.87834,-1.15571 2.21897,-1.15571 1.38686,0 2.2652,1.2944 0.87835,1.24817 0.87835,3.28223 0,1.43309 -0.50852,3.18977 1.24818,0.3236 2.2652,0.3236 2.86618,0 4.71532,-1.66423 h 2.21897 l -0.3236,0.64721 q -3.32846,6.10217 -5.5012,12.01943 -2.12651,5.87103 -2.12651,8.78343 0,1.06326 0.55474,1.80292 0.55474,0.69343 1.34063,0.69343 1.89537,0 6.10217,-4.02189 l 0.73966,0.83212 q -1.2944,1.43308 -4.02189,3.5596 -2.45011,1.9416 -4.57663,1.9416 -1.80291,0 -2.86617,-1.20194 -1.01703,-1.20195 -1.01703,-3.28224 0,-3.46714 2.68126,-8.78343 0.9708,-1.98783 2.49634,-4.5304 1.52555,-2.54257 3.83698,-6.05595 l 0.46228,-0.6472 q -1.52554,1.38686 -2.95863,1.98783 -1.38686,0.55474 -3.18977,0.55474 -0.83212,0 -1.75669,-0.23114 -1.47931,4.5304 -5.54743,9.33818 z m 6.33332,-11.74206 q 0.18492,-1.15572 0.18492,-1.9416 0,-1.61801 -0.55475,-2.54258 -0.50851,-0.92457 -1.34063,-0.92457 -0.46228,0 -0.83211,0.46229 -0.3236,0.41605 -0.3236,1.06325 0,2.17275 2.86617,3.88321 z"
       style="font-style:normal;font-variant:normal;font-weight:normal;font-stretch:normal;font-family:'Savoye LET';-inkscape-font-specification:'Savoye LET';fill:#ffffff;fill-opacity:1;stroke:none;stroke-width:2.36690402px"
       id="path1223"
       inkscape:connector-curvature="0" />
    <path
       d="m 231.10396,151.95968 2.2652,-3.05109 q 2.68126,2.86617 6.05595,2.86617 3.5596,0 5.73234,-2.81994 2.17275,-2.81995 3.55961,-9.24572 l 2.12651,-9.56932 q -5.08515,5.96349 -9.19949,5.96349 -2.40389,0 -3.79075,-1.47932 -1.34062,-1.47931 -1.34062,-3.97566 0,-1.66423 0.41605,-3.65206 l 3.14355,-16.59606 4.48417,-1.89538 -4.48417,18.63013 q -0.55475,2.2652 -0.55475,3.37469 0,1.57177 0.92458,2.5888 0.9708,0.9708 2.54257,0.9708 1.71046,0 3.74452,-1.47932 2.08028,-1.52554 4.62286,-4.5304 l 3.97565,-17.65932 4.34549,-1.89538 -6.74937,27.18242 q -1.20195,4.90023 -2.31143,7.67395 -1.06326,2.77371 -2.49635,4.62286 -4.5304,5.8248 -11.04863,5.8248 -3.79075,0 -5.96349,-1.84914 z"
       style="font-style:normal;font-variant:normal;font-weight:normal;font-stretch:normal;font-family:'Savoye LET';-inkscape-font-specification:'Savoye LET';fill:#ffffff;fill-opacity:1;stroke:none;stroke-width:2.36690402px"
       id="path1225"
       inkscape:connector-curvature="0" />
  </g>
  <path
     id="path1235"
     d="M 19.112792,5.050976 C 17.026985,5.051042 15.089147,5.28079 13.748803,5.769642 1.7197418,10.30815 -3.3661722,22.818553 2.3386068,33.816009 7.4939257,43.921937 18.835943,47.635057 28.801807,42.617122 c 4.813237,-2.405279 7.218663,-4.88067 9.623928,-10.173347 1.443666,-3.092109 1.646977,-4.39907 1.372248,-8.592803 C 39.24851,15.878277 35.674922,10.377609 28.663809,6.80338 26.471986,5.685585 22.589125,5.050869 19.112792,5.050976 Z m -4.744272,9.590078 c 1.581078,0.619505 17.320992,9.898614 17.320992,10.173357 0,0.342069 -16.909811,10.311359 -17.529302,10.311359 -0.207403,-1.4e-5 -0.346308,-4.67688 -0.346308,-10.381658 0,-5.704801 0.277196,-10.243109 0.554618,-10.103058 z"
     style="fill:#1fc5b6;fill-opacity:1;stroke-width:0.02693475"
     inkscape:connector-curvature="0" />
</svg>
